<svg xmlns="http://www.w3.org/2000/svg" xml:space="preserve" width="1.70666in" height="1.70666in" version="1.1"
     style="shape-rendering:geometricPrecision; text-rendering:geometricPrecision; image-rendering:optimizeQuality; fill-rule:evenodd; clip-rule:evenodd"
     viewBox="0 0 1707 1707">
 <defs>
  <style type="text/css">

    .fil0 {fill:#3B566A}
    .fil5 {fill:#6CBFF8}
    .fil4 {fill:#A5D6A7}
    .fil2 {fill:#CC3A3A}
    .fil1 {fill:#F77474}
    .fil3 {fill:#FFC107}

  </style>
 </defs>
    <g id="Layer_x0020_1">
  <metadata id="CorelCorpID_0Corel-Layer"></metadata>
        <g id="_595191600">
   <path class="fil0"
         d="M1004 650l-491 0c-14,0 -26,-11 -26,-26l0 -277c0,-15 12,-26 26,-26 14,0 26,11 26,26l0 252 465 0c15,0 26,11 26,25 0,15 -11,26 -26,26z"></path>
            <path class="fil0"
                  d="M1004 765l-655 0c-15,0 -26,-12 -26,-26l0 -248c0,-15 11,-26 26,-26 14,0 25,11 25,26l0 222 630 0c15,0 26,12 26,26 0,14 -11,26 -26,26z"></path>
            <path class="fil0"
                  d="M349 1242c-15,0 -26,-11 -26,-25l0 -249c0,-14 11,-26 26,-26l655 0c15,0 26,12 26,26 0,15 -11,26 -26,26l-630 0 0 223c0,14 -11,25 -25,25z"></path>
            <path class="fil0"
                  d="M513 1387c-14,0 -26,-12 -26,-26l0 -278c0,-14 12,-26 26,-26l491 0c15,0 26,12 26,26 0,14 -11,26 -26,26l-465 0 0 252c0,14 -12,26 -26,26z"></path>
            <path class="fil0"
                  d="M1004 880l-765 0c-14,0 -26,-12 -26,-26 0,-15 12,-26 26,-26l765 0c15,0 26,11 26,26 0,14 -11,26 -26,26z"></path>
            <g>
    <path class="fil1"
          d="M708 1521l1 0c57,110 173,186 306,186 152,0 282,-97 328,-237 122,-34 211,-147 211,-278 0,-42 -9,-84 -27,-122 53,-53 84,-126 84,-203 0,-97 -50,-187 -128,-240 6,-24 9,-49 9,-75 0,-144 -106,-264 -244,-285 -11,-149 -136,-267 -288,-267 -108,0 -202,59 -251,147l-1 -1 0 607 0 768z"></path>
                <path class="fil2"
                      d="M834 544c95,-26 192,31 217,125 8,28 8,59 1,88 -3,15 -18,24 -33,20 -15,-4 -24,-19 -20,-33 5,-20 4,-41 -1,-61 -17,-65 -84,-104 -149,-86 -15,4 -30,-5 -34,-20 -4,-14 5,-30 19,-33z"></path>
                <path class="fil2"
                      d="M1245 244c2,8 2,15 3,23 15,2 29,5 43,10 -26,88 -113,128 -202,110 0,0 -1,0 -1,-1 -14,-3 -23,-17 -20,-32 3,-14 17,-24 32,-21 65,13 122,-11 140,-78 1,-4 3,-8 5,-11z"></path>
                <path class="fil2"
                      d="M1383 1456c-13,5 -26,10 -40,14 -1,5 -3,10 -5,15 -6,-5 -10,-13 -10,-22 0,-69 -49,-108 -115,-112 -15,-1 -26,-14 -25,-29 0,-15 14,-27 29,-26 90,6 165,67 166,160z"></path>
                <path class="fil2"
                      d="M1114 1118c98,0 177,-80 177,-177 0,-30 -8,-59 -22,-85 -7,-14 -24,-19 -37,-11 -13,7 -18,24 -11,37 10,18 15,38 15,59 0,67 -55,122 -122,122 -15,0 -28,12 -28,27 0,16 13,28 28,28z"></path>
                <path class="fil2"
                      d="M955 762c84,49 193,20 242,-64 15,-26 23,-55 24,-85 0,-15 -12,-28 -27,-28 -16,-1 -28,11 -28,27 -1,20 -6,40 -17,58 -33,58 -108,78 -167,45 -13,-8 -30,-3 -37,10 -8,13 -3,30 10,37z"></path>
                <path class="fil2"
                      d="M1196 1081c0,98 -79,177 -177,177 -30,0 -59,-7 -85,-21 -13,-8 -18,-24 -11,-38 7,-13 24,-18 37,-11 18,10 38,15 59,15 67,0 122,-54 122,-122 0,-15 12,-27 28,-27 15,0 27,12 27,27z"></path>
                <path class="fil2"
                      d="M1324 1390c-48,84 -157,113 -242,64 -25,-14 -47,-36 -63,-61 -7,-13 -3,-30 10,-38 13,-8 30,-4 38,9 10,18 25,32 43,43 58,33 133,13 167,-45 7,-13 24,-18 37,-10 13,8 18,24 10,38z"></path>
                <path class="fil2"
                      d="M991 403c-98,0 -177,-79 -177,-177 0,-30 7,-59 22,-85 7,-14 24,-18 37,-11 13,7 18,24 11,37 -10,18 -15,38 -15,59 0,67 55,122 122,122 15,0 28,12 28,28 0,15 -13,27 -28,27z"></path>
                <path class="fil2"
                      d="M991 1075c-98,0 -177,-80 -177,-177 0,-30 7,-59 22,-85 7,-14 24,-19 37,-11 13,7 18,24 11,37 -10,18 -15,38 -15,59 0,67 55,122 122,122 15,0 28,12 28,27 0,16 -13,28 -28,28z"></path>
   </g>
            <path class="fil3"
                  d="M513 372c-46,0 -84,-38 -84,-84 0,-47 38,-85 84,-85 47,0 85,38 85,85 0,46 -38,84 -85,84z"></path>
            <path class="fil4"
                  d="M349 517c-47,0 -85,-38 -85,-85 0,-47 38,-84 85,-84 46,0 84,37 84,84 0,47 -38,85 -84,85z"></path>
            <path class="fil4"
                  d="M349 1360c-47,0 -85,-38 -85,-85 0,-46 38,-84 85,-84 46,0 84,38 84,84 0,47 -38,85 -84,85z"></path>
            <path class="fil3"
                  d="M522 1503c-47,0 -85,-38 -85,-84 0,-47 38,-85 85,-85 47,0 84,38 84,85 0,46 -37,84 -84,84z"></path>
            <path class="fil5"
                  d="M180 938c-46,0 -84,-38 -84,-84 0,-47 38,-85 84,-85 47,0 85,38 85,85 0,46 -38,84 -85,84z"></path>
  </g>
 </g>
</svg>
